 <svg t="1696905382927" class="icon" viewBox="0 0 1074 1024" version="1.1" xmlns="http://www.w3.org/2000/svg"
                p-id="1506" width="75" height="75">
                <path
                    d="M1064.61271 553.895788a25.257446 25.257446 0 0 0-16.038478-15.217611L786.780805 458.170068V125.150644a23.23685 23.23685 0 0 0-8.776962-18.943084 25.257446 25.257446 0 0 0-16.038478-15.217611L468.221269 1.326016a29.046063 29.046063 0 0 0-18.437935 0.820867L232.948161 101.156071a26.646605 26.646605 0 0 0-15.217612 24.81544v325.757909a10.166122 10.166122 0 0 0 0.820867 4.798914L15.228977 549.349448A26.646605 26.646605 0 0 0 0.011366 574.164889v324.937041a25.699451 25.699451 0 0 0 18.437935 24.815441l310.540298 91.242523a22.163409 22.163409 0 0 0 7.198372 0.820867h0.820867a12.123574 12.123574 0 0 0 15.217611 7.198372l193.72461-92.821114 287.36659 84.865019a22.163409 22.163409 0 0 0 7.198372 0.820867h0.820867a12.123574 12.123574 0 0 0 15.217612 7.198372l208.373928-99.261763a16.796202 16.796202 0 0 0 8.776963-13.575877V573.407165a20.458531 20.458531 0 0 0-9.092681-19.511377zM462.727775 52.030339l220.11864 68.005673-145.672319 66.427082-97.683172-28.47777-124.834926-38.391318z m-194.482334 108.859591l156.091016 45.652834 103.23981 32.013812V508.306099l-259.330826-75.772338z m42.432509 795.609546l-259.330825-75.772338v-271.517543l156.091015 45.652833 103.23981 32.013813v269.749522z m8.776963-322.032435l-97.620029-28.793489-124.834926-38.391317 148.071777-67.24795L464.74837 568.608251z m495.424801 322.032435l-245.691805-72.046865v-271.517543l141.820559 41.990504 103.23981 32.013813v269.749522z m8.776962-322.032435l-97.620028-28.793489-124.89807-37.886168 147.756058-67.24795 220.118641 68.005673z"
                    fill="#1D85ED" p-id="1507"></path>
            </svg>